<svg xmlns="http://www.w3.org/2000/svg" xmlns:xlink="http://www.w3.org/1999/xlink" viewBox="0 0 755 285"><defs><style>.a{fill:#eaeaea;}.b{fill:url(#a);}.c{fill:#009de2;}.d{fill:url(#b);}.e{fill:url(#c);}</style><linearGradient id="a" x1="135.07" y1="38.07" x2="135.07" y2="250.13" gradientUnits="userSpaceOnUse"><stop offset="0" stop-color="#bfbfbf"/><stop offset="0.68" stop-color="#919395"/><stop offset="1" stop-color="#5b5b5b"/></linearGradient><linearGradient id="b" x1="135.06" y1="43.08" x2="135.06" y2="241.92" gradientUnits="userSpaceOnUse"><stop offset="0" stop-color="#bfbfbf"/><stop offset="0.57" stop-color="#919395"/><stop offset="1" stop-color="#5b5b5b"/></linearGradient><linearGradient id="c" x1="135.08" y1="33.07" x2="135.08" y2="258.34" gradientUnits="userSpaceOnUse"><stop offset="0" stop-color="#fff" stop-opacity="0"/><stop offset="0.69" stop-color="#231f20" stop-opacity="0.65"/><stop offset="1" stop-color="#020202" stop-opacity="0.7"/></linearGradient></defs><title> Pristine Wraps Co White</title><path class="a" d="M330,68.15a26.6,26.6,0,0,1-1,8.95,15.2,15.2,0,0,1-4,6.76,31.29,31.29,0,0,1-7.19,4.93,27.26,27.26,0,0,1-8.27,2.37c-2.2.16-4,.29-5.48.37s-2.64.1-3.53.06a16,16,0,0,1-2.07-.19,2.88,2.88,0,0,1-1.1-.36c-.73-.33-1.09-.73-1.09-1.22v-.24a1.46,1.46,0,0,1,1.46-1.1,7.64,7.64,0,0,1,2.07-.24,13.58,13.58,0,0,0,2.55-.25,24.58,24.58,0,0,0,5.72-1.21,27.32,27.32,0,0,0,3.53-1.4A17.77,17.77,0,0,0,316,82.15l.24-.24a21.21,21.21,0,0,0,3.35-5.24,18.48,18.48,0,0,0,1.64-6.45,16.93,16.93,0,0,0-.91-6.76,31.77,31.77,0,0,0-2.86-6.14,16.4,16.4,0,0,0-4.14-4.63,17.51,17.51,0,0,0-6.09-2.8,28.19,28.19,0,0,0-7.3-1,15.67,15.67,0,0,0-3.59.37,2.93,2.93,0,0,0-2,1.22v71.23a6.73,6.73,0,0,0,1,4.13,6,6,0,0,0,3.84,1.83,1.85,1.85,0,0,1,1.34.48c.32.33.4.63.24.91a2.44,2.44,0,0,1-1.4.79,10.87,10.87,0,0,1-3.59.25H281.17a4.73,4.73,0,0,1-2.25-.43,1.64,1.64,0,0,1-.92-.91.88.88,0,0,1,.37-.91,2.12,2.12,0,0,1,1.46-.43q3.9-1.34,3.9-5.84V52.69q.12-3.4-3.41-4.14c-1.3-.57-2-1.14-2.07-1.7s.24-1,1-1.34a4.43,4.43,0,0,1,1.46-.37c.65-.08,1.71-.16,3.17-.24s3.47-.12,6-.12h14.92A27.38,27.38,0,0,1,316.41,47,22.64,22.64,0,0,1,324,52.51,22.16,22.16,0,0,1,328.35,60,31.78,31.78,0,0,1,330,68.15Z"/><path class="a" d="M404.62,128.05c.56.32.69.61.36.85a4.64,4.64,0,0,1-1.82.61c-.9.16-2,.3-3.23.43s-2.5.22-3.71.3a13.07,13.07,0,0,1-3.9-.37c-1.38-.32-3.21-1.46-5.48-3.4a22,22,0,0,1-3.35-3.35c-1.17-1.42-2.78-3.43-4.8-6s-4.59-5.92-7.67-10S364,97.94,359.08,91.77h-2.55v30a8,8,0,0,0,1,4.32c.65,1,1.95,1.64,3.9,1.89a1.85,1.85,0,0,1,1.34.48c.32.33.4.63.24.92a2.56,2.56,0,0,1-1.4.79,11.21,11.21,0,0,1-3.59.24H343.26a8.2,8.2,0,0,1-3-.42A2.4,2.4,0,0,1,339,129a.7.7,0,0,1,.24-.91,2.17,2.17,0,0,1,1.46-.43c3.33-.56,5.07-2.59,5.24-6.08V52.81q.12-3.29-5.24-4.26c-1.38-.57-2.09-1.14-2.13-1.7s.43-1,1.4-1.34a8.64,8.64,0,0,1,1.89-.37c.77-.08,2-.14,3.59-.18s3.75-.06,6.39-.06H367A28.77,28.77,0,0,1,378.62,47a21.63,21.63,0,0,1,7.61,5.35,20.73,20.73,0,0,1,4.26,7.37,32.18,32.18,0,0,1,1.59,8.1,26.14,26.14,0,0,1-.85,9.19,14.38,14.38,0,0,1-4,6.75A30.45,30.45,0,0,1,380,88.66,27.68,27.68,0,0,1,371.62,91a5.79,5.79,0,0,0-.79.06,5.56,5.56,0,0,1-.79.06q5.11,6.21,8.71,11t6.33,8.34c1.82,2.35,3.45,4.36,4.87,6a55,55,0,0,0,4.07,4.33,40.77,40.77,0,0,0,4,3.34c1.18.86,2.19,1.55,3,2.07a14.59,14.59,0,0,0,2.2,1.16C403.83,127.68,404.29,127.89,404.62,128.05ZM357.87,88a60.17,60.17,0,0,0,11.32-1.09,14.88,14.88,0,0,1,2.8-.61c1.14-.57,2.23-1.18,3.29-1.83a16,16,0,0,0,2.92-2.31l.24-.24a22,22,0,0,0,3.29-5.12,17.62,17.62,0,0,0,1.7-6.45,17.92,17.92,0,0,0-.91-7,30.56,30.56,0,0,0-2.86-6.27,19.88,19.88,0,0,0-4.2-4.69,16.42,16.42,0,0,0-6-2.86,28.17,28.17,0,0,0-7.3-1,16.52,16.52,0,0,0-3.65.36,2.48,2.48,0,0,0-2,1.34V87.87A5,5,0,0,0,357.87,88Z"/><path class="a" d="M429,51.84v70.49a13.86,13.86,0,0,0,.31,2.55,3.78,3.78,0,0,0,.42,1,4,4,0,0,0,1.83,1.27c.65.21,1.26.43,1.83.67,1.13.57,1.54,1.14,1.21,1.71a2.05,2.05,0,0,1-1.21.61,21.51,21.51,0,0,1-3.53.36h-.13a21.32,21.32,0,0,1-3.25-.24,19.27,19.27,0,0,0-2.89-.24,13.76,13.76,0,0,0-2.58.24,18.52,18.52,0,0,1-4.3,0c-3.25-.41-4.18-.93-2.8-1.58.32-.17.77-.37,1.34-.61a6.82,6.82,0,0,0,1.64-1,7.09,7.09,0,0,0,1.46-1.76,5.25,5.25,0,0,0,.67-2.8V52.93a4.87,4.87,0,0,0-1.34-3.35,20.74,20.74,0,0,0-2.07-1.52,20.31,20.31,0,0,0-1.82-.91,3,3,0,0,1-1-.55c-.41-.4-.12-.77.85-1.09a6,6,0,0,1,1.16-.19c.53,0,1.36-.06,2.5-.06a30.61,30.61,0,0,1,4.53.06,17.72,17.72,0,0,0,2.46.19,11.94,11.94,0,0,0,2.65-.06c1-.13,2.13-.23,3.5-.31a12.53,12.53,0,0,1,1.95.12,6.56,6.56,0,0,1,1.34.37c1,.57.89,1.18-.24,1.82-.49.33-1.14.73-2,1.22A8.43,8.43,0,0,0,429,51.84Z"/><path class="a" d="M488.25,98.34a20.78,20.78,0,0,1,2.25,10.47,19.24,19.24,0,0,1-4.44,11.32,26.1,26.1,0,0,1-5.54,5.18,24.24,24.24,0,0,1-8.16,3.59,37,37,0,0,1-11.2.85,55.39,55.39,0,0,1-14.55-3.16q-1.46-.61-2.13,0a3.53,3.53,0,0,1-1,.73c-.49.08-.93-.81-1.34-2.68-.16-.89-.33-2-.49-3.41s-.28-3.2-.36-5.48V112.1a11.52,11.52,0,0,1,.36-3.17c.25-.81.61-1.25,1.1-1.33s1.17.52,2.07,1.82c.16.65.34,1.48.55,2.5a18.68,18.68,0,0,0,.79,2.86,14.63,14.63,0,0,0,2.49,5.72,10.56,10.56,0,0,0,4.2,2.92,25.8,25.8,0,0,0,6.21,1.65,23.4,23.4,0,0,0,7.67-.19,24.89,24.89,0,0,0,7.61-2.8,13.24,13.24,0,0,0,5.42-5.23,11.31,11.31,0,0,0,1.16-7.06,15,15,0,0,0-3.47-7.43A28.75,28.75,0,0,0,469.69,96l-9.81-5.72A74.56,74.56,0,0,1,450.94,84a24.16,24.16,0,0,1-6.39-8,20.49,20.49,0,0,1-2.26-10.4,19.7,19.7,0,0,1,4.45-11.39,30.42,30.42,0,0,1,5.47-5.11A22.34,22.34,0,0,1,460,45.57a29.8,29.8,0,0,1,10.1-.67,40.39,40.39,0,0,1,12.6,3.53q1.46.6,2.13.06a3.65,3.65,0,0,1,1-.67c.48-.08.93.81,1.33,2.68.17.89.33,2,.49,3.29a29.28,29.28,0,0,1,.12,4.74c0,1,0,1.95-.12,2.92a5.78,5.78,0,0,1-.55,2.26,1,1,0,0,1-1.21.61q-.79-.19-2.13-2.13l-.49-1.89c-.16-.61-.33-1.24-.49-1.89a10.56,10.56,0,0,0-2.13-4,13.69,13.69,0,0,0-3.59-2.8,19.19,19.19,0,0,0-5.11-1.88,16.23,16.23,0,0,0-6.46-.06,21.78,21.78,0,0,0-7.12,2.67,13.4,13.4,0,0,0-5.29,5.24,11.23,11.23,0,0,0-1.16,7.06,14.88,14.88,0,0,0,3.47,7.43,29.5,29.5,0,0,0,7.73,6.39q4.81,2.86,9.8,5.66a74.7,74.7,0,0,1,8.95,6.27A24.22,24.22,0,0,1,488.25,98.34Z"/><path class="a" d="M552.9,46.31a18.05,18.05,0,0,1-.19,3.66,31.23,31.23,0,0,1-.79,4.18,10.49,10.49,0,0,1-.85,2.74,3.55,3.55,0,0,1-.85,1.16c-.65.48-1.1.24-1.34-.73a5.2,5.2,0,0,1-.31-1.65q-.06-1-.06-2.13a9.91,9.91,0,0,0-.42-2A3,3,0,0,0,546.32,50a14.63,14.63,0,0,0-4.44-1,62.62,62.62,0,0,0-8.34-.07c-2.44.25-3.61,1.26-3.53,3.05l-.12,1.22v67.08c.08,1.13.16,2,.24,2.74s.16,1.23.24,1.64a3.15,3.15,0,0,0,.25.85.76.76,0,0,0,.36.37,4.24,4.24,0,0,0,1.65,1l1.64.55c1.05.41,1.46.89,1.22,1.46a1.92,1.92,0,0,1-1.22.55,32,32,0,0,1-3.65.3,15.16,15.16,0,0,1-3.35-.12c-1-.16-2-.28-2.86-.36a15.09,15.09,0,0,0-2.68.24,19.3,19.3,0,0,1-4.38,0,10.64,10.64,0,0,1-3.05-.61c-.48-.24-.53-.49-.12-.73a15.7,15.7,0,0,1,2.31-1.34,7,7,0,0,0,2.93-3.65,4,4,0,0,0,.24-.91c.08-.45.16-.92.24-1.4V53.18a4.43,4.43,0,0,0-1.58-3.29,9.06,9.06,0,0,0-2.43-.43,16,16,0,0,0-2.44.06q-3.29.13-4.5.06a10,10,0,0,0-2.44.19,21.5,21.5,0,0,0-2.68.73,7.59,7.59,0,0,0-2.68,1.58,8.17,8.17,0,0,0-1.94,2.62,17.66,17.66,0,0,1-1.34,2.37c-.41.57-.77.88-1.1.92a.82.82,0,0,1-.73-.19.84.84,0,0,1-.18-.73q.06-.48.3-2.19c.17-1.05.33-2.37.49-3.94A15.13,15.13,0,0,1,497.5,47a3.24,3.24,0,0,1,1.22-1.84,5.16,5.16,0,0,1,2.07-.54,12.74,12.74,0,0,0,4.75.43q2.93-.18,6.81-.18h31q2.85,0,4-.12a3.35,3.35,0,0,0,1.09-.13c.49,0,1,0,1.46-.06a12.1,12.1,0,0,0,1.34-.18,2.06,2.06,0,0,1,1.1.3C552.61,44.91,552.81,45.44,552.9,46.31Z"/><path class="a" d="M575.9,51.84v70.49a13.86,13.86,0,0,0,.31,2.55,3.78,3.78,0,0,0,.42,1,4,4,0,0,0,1.83,1.27c.65.21,1.26.43,1.83.67,1.13.57,1.54,1.14,1.21,1.71a2.05,2.05,0,0,1-1.21.61,21.51,21.51,0,0,1-3.53.36h-.13a21.32,21.32,0,0,1-3.25-.24,19.16,19.16,0,0,0-2.89-.24,13.76,13.76,0,0,0-2.58.24,18.52,18.52,0,0,1-4.3,0c-3.25-.41-4.18-.93-2.8-1.58.32-.17.77-.37,1.34-.61a6.82,6.82,0,0,0,1.64-1,7.09,7.09,0,0,0,1.46-1.76,5.25,5.25,0,0,0,.67-2.8V52.93a4.87,4.87,0,0,0-1.34-3.35,20.74,20.74,0,0,0-2.07-1.52,20.31,20.31,0,0,0-1.82-.91,3,3,0,0,1-1-.55c-.4-.4-.12-.77.85-1.09a6,6,0,0,1,1.16-.19c.53,0,1.36-.06,2.5-.06a30.61,30.61,0,0,1,4.53.06,17.72,17.72,0,0,0,2.46.19,11.94,11.94,0,0,0,2.65-.06c1-.13,2.13-.23,3.5-.31a12.44,12.44,0,0,1,1.95.12,6.56,6.56,0,0,1,1.34.37c1,.57.89,1.18-.24,1.82-.49.33-1.14.73-1.95,1.22A8.43,8.43,0,0,0,575.9,51.84Z"/><path class="a" d="M592.7,57.32q-.12-4.87-.06-7.49a22.18,22.18,0,0,1,.31-3.78c.16-.77.38-1.21.67-1.34a2.6,2.6,0,0,1,1-.18,2.24,2.24,0,0,1,.91.25,11,11,0,0,1,2.2,1.88c1.09,1.1,2.67,2.84,4.74,5.24s4.87,5.8,8.4,10.22S618.84,72.17,624.11,79s11.69,15.21,19.24,25.2V52.32A5.2,5.2,0,0,0,642,48.91a10.31,10.31,0,0,0-2.07-1.46,19.05,19.05,0,0,0-1.83-.91,3.05,3.05,0,0,1-1-.55c-.33-.48,0-.85.85-1.09a5.62,5.62,0,0,1,1.1-.19c.48,0,1.34-.06,2.55-.06h.13a27.06,27.06,0,0,1,4.32.06,11.24,11.24,0,0,0,1.64.19,1.2,1.2,0,0,0,.91-.12,6.87,6.87,0,0,1,2.5-.25,9.23,9.23,0,0,1,1.7.12,1.82,1.82,0,0,1,.86.37,1,1,0,0,1,.42.91,1.53,1.53,0,0,1-.79,1c-.49.24-1.14.61-2,1.09a4.91,4.91,0,0,0-1.82,3.17v66.71q0,3.9.12,6.39a18.25,18.25,0,0,1-.12,3.84c-.17.89-.37,1.4-.61,1.52a1.22,1.22,0,0,1-.85.06,1.07,1.07,0,0,1-.49-.12,3.68,3.68,0,0,1-.79-.67,15.89,15.89,0,0,1-1.4-1.64c-.57-.73-1.34-1.79-2.32-3.17L599,63.65v57.82a14,14,0,0,0,.31,2.56,2,2,0,0,0,.42.85,3.39,3.39,0,0,0,1.77,1.28,8.93,8.93,0,0,1,1.89.79,2.79,2.79,0,0,1,1.09.92c.25.36.29.67.12.91a1.75,1.75,0,0,1-1.21.73,21.51,21.51,0,0,1-3.53.36h-.13q-1.69-.24-2.43-.3c-.49,0-.94-.06-1.34-.06s-.93,0-1.58.06-2,.1-4,.18a5.21,5.21,0,0,1-3-.55c-.45-.36-.39-.75.18-1.15a6,6,0,0,1,1.34-.73,5.9,5.9,0,0,0,1.64-1.1A8,8,0,0,0,592,124.4a5.3,5.3,0,0,0,.67-2.8Z"/><path class="a" d="M700.44,128.9l-27,.12a22.38,22.38,0,0,0-5.36.12c-1.3.25-2.43.45-3.41.61a9,9,0,0,1-4,.25c-.89-.17-.93-.57-.12-1.22a15.16,15.16,0,0,1,1.52-1,4.27,4.27,0,0,0,1.53-1.64,9.25,9.25,0,0,0,.85-3.23q.24-2.13.36-7.12V59.38c-.08-3.32-.18-5.7-.3-7.12a9.17,9.17,0,0,0-.67-3.1,3,3,0,0,0-1.16-1.34,4.35,4.35,0,0,1-1-.73.77.77,0,0,1,.12-1.34,8.57,8.57,0,0,1,3.16-.24c.9.16,2,.34,3.23.54a24,24,0,0,0,5.3.07l28,.12a27.31,27.31,0,0,0,3.83-.49,11.41,11.41,0,0,0,1.52-.49,1.83,1.83,0,0,1,1.59,0,.82.82,0,0,1,.48.67,9,9,0,0,1-.12,2.38c-.16,1.3-.34,2.92-.55,4.87s-.38,3.57-.54,4.87a10.36,10.36,0,0,1-.49,2.43c-.16.33-.33.49-.49.49-.4,0-.81-.61-1.21-1.83-.17-.73-.37-1.6-.61-2.62a16.32,16.32,0,0,0-1-2.86,3.27,3.27,0,0,0-.91-1.34,8.23,8.23,0,0,0-3.47-1.09,66.89,66.89,0,0,0-8.46-.67q-5.67-.18-15.89-.18V84.46q6.69,0,10.41-.12c2.47-.08,4.34-.2,5.6-.36a8.16,8.16,0,0,0,2.43-.55,2.29,2.29,0,0,0,.8-.67c.4-.49.79-1,1.15-1.52A6.08,6.08,0,0,1,696.67,80a1.77,1.77,0,0,1,1.28-.43c.44,0,.75.35.91.92a4.91,4.91,0,0,1,0,2.19c-.16,1-.36,2.11-.61,3.41s-.63,2.74-.91,4.07-.51,2.42-.67,3.23a6.29,6.29,0,0,1-.55,1.46.62.62,0,0,1-.55.25,1.16,1.16,0,0,1-.67.06c-.28,0-.5-.39-.67-1a21.19,21.19,0,0,1-.42-2.49,4.48,4.48,0,0,0-1-2.5,2.51,2.51,0,0,0-1.09-.79,10.11,10.11,0,0,0-2.56-.49c-1.22-.12-2.94-.2-5.17-.24s-5.18-.06-8.83-.06v37.37q9.86,0,15.34-.18a61.86,61.86,0,0,0,8.22-.67,10.65,10.65,0,0,0,3.53-1,5,5,0,0,0,1.28-1.28l2.07-2.86c.73-1,1.34-1.85,1.82-2.5a14.1,14.1,0,0,1,1.1-1.34,2.4,2.4,0,0,1,.61-.48q.24,0,.42.54a7.64,7.64,0,0,1,.06,2.38q-.24,2-.6,4.8c-.25,1.91-.45,3.49-.61,4.75a17.75,17.75,0,0,1-.43,2.44,1.86,1.86,0,0,1-.43.79,1.49,1.49,0,0,1-1.7-.12c-.41-.16-.89-.37-1.46-.61A15.86,15.86,0,0,0,700.44,128.9Z"/><path class="a" d="M361,154a2.58,2.58,0,0,1,.83.67c.23.29.08.88-.44,1.77a25.09,25.09,0,0,0-4.14,2.55,8.91,8.91,0,0,0-2.38,3,15.77,15.77,0,0,0-1.32,4.38q-.43,2.63-1,6.64c-.39,2.67-.84,5.8-1.36,9.37s-1.06,7.26-1.61,11.08-1.1,7.61-1.66,11.38-1.05,7.2-1.51,10.29-.86,5.78-1.21,8.09l-.93,6c-.26,1.66-.48,3-.68,4.14s-.39,2-.58,2.74q-.59,2.19-1.17,2.49a1.31,1.31,0,0,1-1.37-.18,2.11,2.11,0,0,1-.53-.67,15,15,0,0,1-1-2.55q-.69-2-1.95-6.21t-3.36-11.63q-2.1-7.42-5.16-18.81T321,170.65q-2.52,8.52-4.62,15.59t-3.85,12.9q-2.82,9.38-4.82,15.89t-3.41,10.77c-.94,2.84-1.69,5.08-2.24,6.7s-1,2.84-1.36,3.65a8.12,8.12,0,0,1-.83,1.58,2,2,0,0,1-.49.49,1.78,1.78,0,0,1-1.41.49c-.42-.08-.86-.57-1.31-1.46a19.45,19.45,0,0,1-.64-1.95c-.23-.81-.48-1.91-.78-3.29s-.61-3.1-1-5.17-.8-4.61-1.31-7.61-1.14-6.52-1.86-10.53-1.46-8.14-2.24-12.36-1.54-8.32-2.28-12.3-1.42-7.38-2-10.22q-1.08-5.23-1.9-8.22a20.26,20.26,0,0,0-1.7-4.5,7,7,0,0,0-1.81-2.2c-.61-.44-1.31-.91-2.09-1.4-1.3-.81-1.8-1.52-1.51-2.13a2,2,0,0,1,1.22-1.15,5.37,5.37,0,0,1,2-.12c.85.08,1.69.2,2.54.36,1.68.08,3.31.08,4.87,0,.77-.16,1.54-.3,2.28-.42l1.9-.31a1.74,1.74,0,0,1,1.76.85,2.92,2.92,0,0,1-.3,1.83,9.56,9.56,0,0,0-.34,1,10.82,10.82,0,0,0-.24,1.4c0,.25,0,.57.05,1s.1,1,.19,1.64.25,1.6.44,2.74.45,2.6.78,4.38.73,3.82,1.22,6.33,1.07,5.79,1.75,9.8,1.49,8.91,2.44,14.67,2.06,12.75,3.36,20.94q2-6.21,3.84-11.93t3.36-11.08q3-9.85,5.26-17.53t3.7-12.9c.91-3,1.64-5.4,2.2-7.18s1-3.13,1.31-4a10.33,10.33,0,0,1,.73-1.71.67.67,0,0,1,.54-.36.83.83,0,0,1,1,.18,8.23,8.23,0,0,1,1,1,3.84,3.84,0,0,1,.44.73,18.35,18.35,0,0,1,.78,2.37c.36,1.26.89,3.17,1.61,5.72s1.69,6.13,2.92,10.72,2.76,10.37,4.58,17.34,4,15.55,6.62,25.69q1.85-13.87,3.17-23.56t2.14-16.07c.55-4.26,1-7.58,1.26-10s.49-4.22.59-5.48a19.55,19.55,0,0,0,.1-2.43,3.55,3.55,0,0,0-.15-.79,3.66,3.66,0,0,0-.93-1.16,5.56,5.56,0,0,0-1-.67,3.15,3.15,0,0,1-1.26-.85,4.19,4.19,0,0,1-.44-.73,1.9,1.9,0,0,1-.25-.85c.07-.49.46-.86,1.17-1.1a11.21,11.21,0,0,1,1.37-.18c.52,0,1.1-.06,1.75-.06l2.24.24,2.53.24c.91,0,1.8,0,2.68-.06s1.64-.1,2.29-.18H360A2.17,2.17,0,0,1,361,154Z"/><path class="a" d="M418.74,237.12c.45.33.55.61.29.86a3.32,3.32,0,0,1-1.46.6A23.38,23.38,0,0,1,415,239c-1,.12-2,.22-3,.31a8.7,8.7,0,0,1-3.12-.37q-1.65-.48-4.38-3.41a19.72,19.72,0,0,1-2.68-3.35c-.94-1.42-2.22-3.42-3.85-6s-3.67-5.93-6.13-10-5.65-9.17-9.55-15.34h-2v29.95a9.71,9.71,0,0,0,.78,4.33,3.88,3.88,0,0,0,3.11,1.88,1.32,1.32,0,0,1,1.08.49.85.85,0,0,1,.19.91,1.92,1.92,0,0,1-1.12.79,7,7,0,0,1-2.87.25H369.65a5.35,5.35,0,0,1-2.38-.43,2,2,0,0,1-1-.91.82.82,0,0,1,.2-.91,1.49,1.49,0,0,1,1.17-.43c2.66-.57,4.05-2.6,4.19-6.09V161.89q.09-3.28-4.19-4.26c-1.11-.57-1.67-1.14-1.71-1.71s.34-1,1.12-1.34a6.09,6.09,0,0,1,1.51-.36q.93-.12,2.88-.18c1.29,0,3-.07,5.11-.07h12.12A19.08,19.08,0,0,1,398,156,18.14,18.14,0,0,1,404,161.4a22.3,22.3,0,0,1,3.41,7.37,39.54,39.54,0,0,1,1.27,8.09,32.77,32.77,0,0,1-.68,9.19,15.35,15.35,0,0,1-3.22,6.76,25,25,0,0,1-5.79,4.93,18.81,18.81,0,0,1-6.67,2.37,3.79,3.79,0,0,0-.64.07,3.7,3.7,0,0,1-.63.06c2.73,4.13,5.05,7.81,7,11s3.61,6,5.07,8.34,2.76,4.37,3.89,6a52.52,52.52,0,0,0,3.27,4.32,35.76,35.76,0,0,0,3.16,3.35c.94.85,1.75,1.54,2.44,2.07a11.32,11.32,0,0,0,1.75,1.16C418.11,236.76,418.48,237,418.74,237.12Zm-37.4-40.05A38.87,38.87,0,0,0,390.4,196a9.37,9.37,0,0,1,2.24-.61c.91-.57,1.78-1.18,2.63-1.83a13.74,13.74,0,0,0,2.33-2.31l.2-.25a23.6,23.6,0,0,0,2.63-5.11,21.25,21.25,0,0,0,1.36-6.45,22.15,22.15,0,0,0-.73-7,34.84,34.84,0,0,0-2.29-6.27,18.6,18.6,0,0,0-3.36-4.69,12.09,12.09,0,0,0-4.82-2.86,18.34,18.34,0,0,0-5.84-1,10.65,10.65,0,0,0-2.92.36,2,2,0,0,0-1.56,1.34V197A3.18,3.18,0,0,0,381.34,197.07Z"/><path class="a" d="M459.64,212.29H440q-1.85,7.54-2.92,11.62c-.72,2.73-1.25,4.73-1.61,6s-.58,2.13-.68,2.5a3.55,3.55,0,0,0-.15.91c0,.89.16,1.46.49,1.7a4.5,4.5,0,0,0,1.07.61,7.16,7.16,0,0,1,1.12.61,1.83,1.83,0,0,1,.73,1,1.19,1.19,0,0,1-.09,1c-.2.37-.75.55-1.66.55H424.58c-.71-.16-1-.43-.83-.79a3.72,3.72,0,0,1,.73-1,5,5,0,0,1,1.61-1.28,4,4,0,0,0,1.51-1.27L448.93,155a4.78,4.78,0,0,1,2-1.22,2.38,2.38,0,0,1,1.31.12,1.29,1.29,0,0,1,.54.49,11.81,11.81,0,0,1,.78,1.76c.35.94.79,2.3,1.31,4.08s1.23,4.31,2.14,7.55,1.85,7.14,3,11.69,2.37,9.23,3.61,14.06l3.6,14.12q1.75,6.89,3.12,11.87t2,7.91c.52,2,1,3.46,1.32,4.51a18.65,18.65,0,0,0,.83,2.19A3.67,3.67,0,0,0,476.4,236a4.9,4.9,0,0,1,1.16.85c.59.49.82,1,.69,1.46-.07.17-.26.27-.59.31s-1.14.1-2.43.18-2.81,0-4.73.06-3.52.06-4.82.06a18.46,18.46,0,0,1-2.63-.12,1.41,1.41,0,0,1-.87-.37,1.25,1.25,0,0,1,.48-1.58,12.11,12.11,0,0,1,1.12-.73,3.12,3.12,0,0,0,1.12-1.7,4,4,0,0,0,.25-1.1,12.16,12.16,0,0,0-.44-2.68q-.49-2.07-1.66-6.27T459.64,212.29ZM441.14,205l16.85-.12q-3.32-17.16-7.89-34.09-2.62,8.4-4.87,16.93T441.14,205Z"/><path class="a" d="M525.87,177.23a32.72,32.72,0,0,1-.78,8.94,16.19,16.19,0,0,1-3.21,6.76,25.47,25.47,0,0,1-5.75,4.93,18.48,18.48,0,0,1-6.62,2.38q-2.62.24-4.38.36a23.86,23.86,0,0,1-2.83.06,12.1,12.1,0,0,1-1.65-.18,1.9,1.9,0,0,1-.88-.37,1.42,1.42,0,0,1-.88-1.21v-.25a1.25,1.25,0,0,1,1.17-1.09,5,5,0,0,1,1.66-.25,9.28,9.28,0,0,0,2-.24,16.42,16.42,0,0,0,4.58-1.22,19.33,19.33,0,0,0,2.83-1.4,14.87,14.87,0,0,0,3.5-3.22l.2-.25a23.12,23.12,0,0,0,4-11.68,21,21,0,0,0-.73-6.76,36.17,36.17,0,0,0-2.29-6.15,15.59,15.59,0,0,0-3.31-4.62,13.14,13.14,0,0,0-4.87-2.81,18.68,18.68,0,0,0-5.85-1,9.8,9.8,0,0,0-2.87.37,2.33,2.33,0,0,0-1.6,1.21v71.24a8.07,8.07,0,0,0,.82,4.13,4.51,4.51,0,0,0,3.07,1.82,1.32,1.32,0,0,1,1.07.49.84.84,0,0,1,.2.91,2,2,0,0,1-1.12.79,7.28,7.28,0,0,1-2.88.24H486.82a3.3,3.3,0,0,1-1.81-.42,1.57,1.57,0,0,1-.73-.92,1,1,0,0,1,.3-.91,1.51,1.51,0,0,1,1.16-.42c2.08-.9,3.12-2.84,3.12-5.85v-68.9q.11-3.42-2.73-4.14c-1-.57-1.59-1.14-1.65-1.71a1.29,1.29,0,0,1,.78-1.34,3.23,3.23,0,0,1,1.17-.36c.52-.08,1.36-.16,2.53-.25s2.77-.12,4.82-.12h11.93A18.18,18.18,0,0,1,515,156a19,19,0,0,1,6.09,5.54,24,24,0,0,1,3.46,7.49A38.72,38.72,0,0,1,525.87,177.23Z"/><path class="a" d="M569.5,207.42a25.18,25.18,0,0,1,1.81,10.47,22.27,22.27,0,0,1-3.56,11.32,23.82,23.82,0,0,1-4.43,5.17,17.67,17.67,0,0,1-6.53,3.6,24.11,24.11,0,0,1-9,.85,36.93,36.93,0,0,1-11.64-3.17c-.77-.4-1.34-.4-1.7,0a2.74,2.74,0,0,1-.83.73c-.39.09-.74-.81-1.07-2.67-.13-.9-.26-2-.39-3.41s-.23-3.21-.29-5.48v-3.65a14.31,14.31,0,0,1,.29-3.17c.2-.81.49-1.26.88-1.34s.94.53,1.65,1.83c.13.65.28,1.48.44,2.49a22.73,22.73,0,0,0,.64,2.86,16.43,16.43,0,0,0,2,5.73,8.73,8.73,0,0,0,3.36,2.92,17.16,17.16,0,0,0,5,1.64,14.88,14.88,0,0,0,6.14-.18,17.79,17.79,0,0,0,6.08-2.8,12.15,12.15,0,0,0,4.34-5.24,13.7,13.7,0,0,0,.92-7.06,16.77,16.77,0,0,0-2.77-7.42,24.56,24.56,0,0,0-6.19-6.33l-7.84-5.73a60.19,60.19,0,0,1-7.16-6.27,24,24,0,0,1-5.11-8,24.85,24.85,0,0,1-1.8-10.41,22.85,22.85,0,0,1,3.55-11.38,27.55,27.55,0,0,1,4.39-5.12,16.6,16.6,0,0,1,6.18-3.59,19.38,19.38,0,0,1,8.08-.67A27.81,27.81,0,0,1,565,157.5c.78.41,1.35.43,1.71.07a2.79,2.79,0,0,1,.83-.67c.39-.08.74.81,1.07,2.67.13.9.26,2,.39,3.29a35.45,35.45,0,0,1,.09,4.75c0,1,0,1.95-.09,2.92a7.12,7.12,0,0,1-.44,2.25c-.23.53-.55.73-1,.61s-1-.83-1.7-2.13q-.2-1-.39-1.89c-.13-.6-.26-1.23-.39-1.88a10.56,10.56,0,0,0-4.58-6.82,13.76,13.76,0,0,0-4.09-1.89,10.66,10.66,0,0,0-5.16-.06,15.48,15.48,0,0,0-5.7,2.68,12.49,12.49,0,0,0-4.23,5.23,13.75,13.75,0,0,0-.93,7.07,16.67,16.67,0,0,0,2.78,7.42,25.53,25.53,0,0,0,6.18,6.39q3.86,2.87,7.84,5.66a61.17,61.17,0,0,1,7.16,6.28A24,24,0,0,1,569.5,207.42Z"/><path class="a" d="M659.4,159.94c.45,3.25.74,5.84.87,7.79s.18,3.45.15,4.51a9.17,9.17,0,0,1-.24,2.19,1.87,1.87,0,0,1-.49.85c-.58.65-1.07.12-1.46-1.58-.2-.9-.46-2.13-.78-3.72a15.61,15.61,0,0,0-2.73-5.54,15,15,0,0,0-5.16-5.41,13.7,13.7,0,0,0-5-1.65,10.8,10.8,0,0,0-8,2.13,24,24,0,0,0-6.19,8.22,23.47,23.47,0,0,0-1.89,4.26q-.84,2.44-1.9,6.33a65.83,65.83,0,0,0-1.66,9.13,78.64,78.64,0,0,0,0,17.53,65.7,65.7,0,0,0,1.66,9.14q1.06,3.88,1.9,6.33a23.47,23.47,0,0,0,1.89,4.26q2.83,5.47,6.19,7.67a16.83,16.83,0,0,0,8,2.55,12.43,12.43,0,0,0,2.44,0,7.34,7.34,0,0,0,2.53-.73,9.84,9.84,0,0,0,2.58-1.88,16,16,0,0,0,2.58-3.47,22.71,22.71,0,0,0,2.73-6.33q.48-2.45.78-3.78c.39-1.7.88-2.23,1.46-1.58a1.87,1.87,0,0,1,.49.85,9.5,9.5,0,0,1,.24,2.25c0,1.1,0,2.6-.15,4.51s-.42,4.48-.87,7.73a24.26,24.26,0,0,1-8.62,4.81,37.53,37.53,0,0,1-9.11,1.76,20.79,20.79,0,0,1-10.37-1.7,21.32,21.32,0,0,1-8-7.43,22,22,0,0,1-2.38-4.2,55.52,55.52,0,0,1-2.49-7.36,75.1,75.1,0,0,1-2.19-11.27,82,82,0,0,1-.53-10.89,82.25,82.25,0,0,1,.53-10.9,75.22,75.22,0,0,1,2.19-11.26,55.52,55.52,0,0,1,2.49-7.36,18.85,18.85,0,0,1,2.48-4.2,19.62,19.62,0,0,1,8.67-7.13,26.21,26.21,0,0,1,10.62-1.64,34.88,34.88,0,0,1,8.57,1.64A24.37,24.37,0,0,1,659.4,159.94Z"/><path class="a" d="M716.18,196a75.63,75.63,0,0,1-.39,10.77,74.74,74.74,0,0,1-2,11.14,49.42,49.42,0,0,1-2.38,7.49,34.19,34.19,0,0,1-2.29,4.32q-4.68,6.81-10.71,8.52a29.19,29.19,0,0,1-2.88.61,20.06,20.06,0,0,1-3.16.24,18.69,18.69,0,0,1-9.3-2,21.71,21.71,0,0,1-7.46-7,38.21,38.21,0,0,1-2.33-4.32,49.43,49.43,0,0,1-2.53-7.36,68.35,68.35,0,0,1-2.15-11.14,100.38,100.38,0,0,1,0-21.55,71.21,71.21,0,0,1,2.15-11.26,53.81,53.81,0,0,1,2.53-7.31,24.27,24.27,0,0,1,2.43-4.26,22.16,22.16,0,0,1,6.72-6.63,18.11,18.11,0,0,1,8.38-2.38h1.07a18.12,18.12,0,0,1,9.06,2,22.34,22.34,0,0,1,7.3,6.7,26.32,26.32,0,0,1,2.49,4.2,46.41,46.41,0,0,1,2.58,7.36,67,67,0,0,1,2.29,11.08A94.72,94.72,0,0,1,716.18,196ZM709,207.54c.13-1.46.2-2.66.2-3.59s0-2-.1-3.11c-.07-2.1-.23-4.64-.49-7.6a67.76,67.76,0,0,0-1.36-8.83,86.33,86.33,0,0,0-2.39-8.77,62.14,62.14,0,0,0-3.07-7.67,54.3,54.3,0,0,0-2.67-5,13.23,13.23,0,0,0-3.27-3.71,7.74,7.74,0,0,0-4.14-1.58,10,10,0,0,0-5.3,1.4,10.93,10.93,0,0,0-3.85,3.71,25.22,25.22,0,0,0-2.53,5.3,38.78,38.78,0,0,0-1.61,6.2c-.39,2.2-.72,4.35-1,6.46a76.42,76.42,0,0,0-.49,8.82q0,4.57.29,8.34c.2,2.44.45,4.91.78,7.43s.78,5.15,1.36,7.91q.5,2.07,1.08,4.2a34.35,34.35,0,0,0,1.55,4.45q1.08,2.19,2.34,4.32a32.44,32.44,0,0,0,2.63,3.83,9.19,9.19,0,0,0,5.55,3.53,12.91,12.91,0,0,0,5-.24,3,3,0,0,1,.92-.3,2.83,2.83,0,0,0,.93-.31,11,11,0,0,0,4.77-4.87,33.91,33.91,0,0,0,3.61-9.49,46.77,46.77,0,0,0,.82-5.73C708.69,210.71,708.84,209,709,207.54Z"/><path class="a" d="M729.33,234a5.46,5.46,0,0,1-1.17,3.53,3.46,3.46,0,0,1-5.65,0,5.91,5.91,0,0,1,0-7.06,3.46,3.46,0,0,1,5.65,0A5.46,5.46,0,0,1,729.33,234Z"/><polygon class="b" points="32.21 116.21 87.83 38.07 181.95 38.27 237.93 116.21 134.62 250.13 32.21 116.21"/><path class="c" d="M90.41,43.08l89,.18L231.7,116.1,134.63,241.92,38.42,116.1l52-73m-5.15-10-3,4.21-52,73-4.28,6,4.48,5.86L126.69,248l7.91,10.34,8-10.31,97.07-125.82,4.54-5.89-4.34-6L187.51,37.43l-3-4.16h-5.11l-89-.18Z"/><polygon class="d" points="90.41 43.08 38.42 116.1 134.63 241.92 231.7 116.1 179.38 43.26 90.41 43.08"/><path class="e" d="M90.41,43.08l89,.18L231.7,116.1,134.63,241.92,38.42,116.1l52-73m-5.15-10-3,4.21-52,73-4.28,6,4.48,5.86L126.69,248l7.91,10.34,8-10.31,97.07-125.82,4.54-5.89-4.34-6L187.51,37.43l-3-4.16h-5.11l-89-.18Z"/><path d="M151.84,112.65l-21.19,26.79-3.29-11.77a8.41,8.41,0,0,0-.79-1.87,35.77,35.77,0,0,0,5.93-16.91c1.14-12.42-1.18-28.51-14.54-33L70.6,76l.06,34.34,16.38,0,0-19.42,21.29-.07c8.15,4.69,8,13.37,7.89,16.6-.23,6-3.44,10.25-5.36,11.49-3.67,1.13-19.24,1.59-31.81,1.32L70.66,120l0,38.19,16.47,21.53L87,136.68c9.29,0,19.3-.17,25.71-.22l10.6,37.2,28.47-34.91,28.13,34.91L206.35,80.8,194.07,63.7l-21,75.74"/><path class="a" d="M305.18,264.88q.07,0,.12.15a2.08,2.08,0,0,1,0,.61c0,.33-.08.75-.15,1.24s-.14.9-.18,1.21a5.79,5.79,0,0,1-.12.64.42.42,0,0,1-.12.21.58.58,0,0,1-.46,0,2,2,0,0,0-.34-.07l-.85-.1-7.55,0c-.49,0-1,0-1.42,0l-1.39,0-.39.07c-.82-.09-1.1-.22-.86-.4a6.76,6.76,0,0,1,.63-.3,2,2,0,0,0,.85-.95,5.42,5.42,0,0,0,.2-1.49V248a1.38,1.38,0,0,0-.36-.93,3.64,3.64,0,0,0-.6-.42,2.57,2.57,0,0,0-.46-.24.43.43,0,0,1-.26-.16c-.11-.11-.05-.2.2-.26a.62.62,0,0,1,.33-.07l.66,0h.06a8.67,8.67,0,0,1,1.21.05,5.16,5.16,0,0,0,.67,0,6.56,6.56,0,0,0,.73,0,6.62,6.62,0,0,1,1-.05,1.94,1.94,0,0,1,.86.13q.19.06.18.21a.44.44,0,0,1-.22.28,5.15,5.15,0,0,1-.54.32,2,2,0,0,0-.71.87v18.15a12.12,12.12,0,0,0,.1,1.59c1.78.06,3.16.09,4.15.09a20.16,20.16,0,0,0,2.23-.09,2.58,2.58,0,0,0,1-.25,1.45,1.45,0,0,0,.35-.35l.56-.77c.19-.28.36-.5.49-.68a2.28,2.28,0,0,1,.3-.36A.87.87,0,0,1,305.18,264.88Z"/><path class="a" d="M323.6,248.88a.3.3,0,0,1,.23.33s-.06.09-.1.15a.93.93,0,0,1-.26.18l-.47.25a1,1,0,0,0-.39.41.86.86,0,0,0-.12.41c0,.17,0,.43-.05.78v9a19.23,19.23,0,0,1-.1,2.14,8.3,8.3,0,0,1-1.18,3.92,5.51,5.51,0,0,1-2.28,1.89A9,9,0,0,1,316,269h-.19a11.48,11.48,0,0,1-1.85,0,7,7,0,0,1-1.92-.44,5.19,5.19,0,0,1-.92-.45,4.11,4.11,0,0,1-.86-.72,5.32,5.32,0,0,1-.72-1.11,7.43,7.43,0,0,1-.56-1.62,18.26,18.26,0,0,1-.27-1.89c-.06-.7-.12-1.46-.16-2.3V251a.7.7,0,0,1,0-.23.69.69,0,0,0,0-.2,1.7,1.7,0,0,0-.36-.87,2.06,2.06,0,0,0-.43-.32,2.7,2.7,0,0,0-.3-.13.34.34,0,0,1-.16-.1c-.11-.11-.07-.19.13-.26a4.56,4.56,0,0,1,1.05-.07h2.81a5.82,5.82,0,0,1,.69,0c.33.06.5.15.5.26s-.06.15-.23.33a2,2,0,0,0-.27.17,1.94,1.94,0,0,0-.3.29,1.12,1.12,0,0,0-.27.38,2,2,0,0,0-.09.88v9.3c0,1.45.09,2.68.19,3.67a4.6,4.6,0,0,0,.77,2.34,3.2,3.2,0,0,0,1.66,1.14,5.55,5.55,0,0,0,2.05.24,2.07,2.07,0,0,1,.43-.06,4.65,4.65,0,0,0,1.94-.74,4.47,4.47,0,0,0,1.31-1.37,4.94,4.94,0,0,0,.61-1.74,13,13,0,0,0,.15-2.06,8.77,8.77,0,0,0,0-1.45v-9.24a5.89,5.89,0,0,0-.07-.86.31.31,0,0,0-.13-.23,3.09,3.09,0,0,0-.25-.23,1,1,0,0,0-.31-.2,1.13,1.13,0,0,0-.33-.13.57.57,0,0,1-.26-.1.27.27,0,0,1-.1-.4.45.45,0,0,1,.21-.16,1.35,1.35,0,0,1,.48-.07c.2,0,.45,0,.74,0l.88,0a5.87,5.87,0,0,0,.84,0l.68-.07A2.5,2.5,0,0,1,323.6,248.88Z"/><path class="a" d="M339.6,268.65s-.05.09-.15.14a1.74,1.74,0,0,1-.67.12,10.48,10.48,0,0,1-1.34,0l-1.47,0h-1a4,4,0,0,1-.57,0c-.2-.07-.26-.15-.17-.26a2.11,2.11,0,0,1,.26-.22,3.59,3.59,0,0,0,.33-.25,1.33,1.33,0,0,0,.29-.29,1.17,1.17,0,0,0,0-.7c-.57-1.16-1.16-2.32-1.76-3.46s-1.21-2.29-1.8-3.43c-.57,1.14-1.15,2.27-1.73,3.4s-1.16,2.25-1.74,3.4c-.17.33-.21.57-.11.74a1.49,1.49,0,0,0,.38.41l.4.28.26.21a.13.13,0,0,1,0,.14s-.14.07-.36.1a7.73,7.73,0,0,1-.86,0l-1-.05h-.77a3.74,3.74,0,0,1-.48-.05c-.18,0-.27-.06-.28-.1s0-.1.1-.17a1.4,1.4,0,0,1,.31-.19l.33-.2a.93.93,0,0,0,.3-.3.6.6,0,0,0,.08-.13c0-.07.1-.21.21-.41l.51-.93c.24-.41.55-1,.94-1.7l1.34-2.49c.52-1,1-1.95,1.54-3a103.29,103.29,0,0,0-4.82-9.43,1.14,1.14,0,0,0-.46-.33l-.53-.25a.93.93,0,0,1-.33-.23c-.07-.08,0-.17.1-.28h4.75a1.19,1.19,0,0,1,.23.05c.18.07.18.19,0,.37l-.38.28a.69.69,0,0,0-.28.34.65.65,0,0,0,0,.25,1.89,1.89,0,0,0,.19.53c.11.25.27.6.49,1l.89,1.84c.24.5.51,1.06.79,1.66s.59,1.26.89,2c.4-.71.76-1.36,1.09-2s.63-1.16.89-1.66c.42-.77.75-1.38,1-1.84s.42-.8.53-1a2.14,2.14,0,0,0,.18-.53.51.51,0,0,0,0-.25,1,1,0,0,0-.33-.34c-.16-.1-.29-.2-.4-.28s-.21-.3,0-.37a1.07,1.07,0,0,1,.21-.05h3.22c.07.15.08.25,0,.29a.65.65,0,0,1-.23.14l-.36.16a1.76,1.76,0,0,0-.5.5c-.13.17-.57.94-1.33,2.31l-3.29,5.9c.27.62.55,1.24.86,1.85l.91,1.82q.45.88.87,1.68c.29.53.55,1,.8,1.42.39.72.7,1.29.92,1.68s.38.69.5.89a4.06,4.06,0,0,1,.19.38.54.54,0,0,0,.07.12.64.64,0,0,0,.16.11l.24.12a4.76,4.76,0,0,0,.59.25C339.46,268.44,339.58,268.54,339.6,268.65Z"/><path class="a" d="M357.26,248.88a.3.3,0,0,1,.23.33s-.06.09-.1.15a.93.93,0,0,1-.26.18l-.47.25a1,1,0,0,0-.39.41.86.86,0,0,0-.12.41c0,.17,0,.43,0,.78v9a19.23,19.23,0,0,1-.1,2.14,8.3,8.3,0,0,1-1.18,3.92,5.51,5.51,0,0,1-2.28,1.89,9,9,0,0,1-2.91.63h-.19a11.48,11.48,0,0,1-1.85,0,7,7,0,0,1-1.92-.44,5.19,5.19,0,0,1-.92-.45,4.11,4.11,0,0,1-.86-.72,5.32,5.32,0,0,1-.72-1.11,7.43,7.43,0,0,1-.56-1.62q-.17-.86-.27-1.89c-.06-.7-.12-1.46-.16-2.3V251a.7.7,0,0,1,0-.23.69.69,0,0,0,0-.2,1.7,1.7,0,0,0-.36-.87,2.06,2.06,0,0,0-.43-.32,2.7,2.7,0,0,0-.3-.13.34.34,0,0,1-.16-.1c-.11-.11-.07-.19.13-.26a4.56,4.56,0,0,1,1.05-.07h2.81a5.82,5.82,0,0,1,.69,0c.33.06.5.15.5.26s-.06.15-.23.33a2,2,0,0,0-.27.17,1.57,1.57,0,0,0-.29.29,1.16,1.16,0,0,0-.29.38,2.24,2.24,0,0,0-.08.88v9.3c0,1.45.08,2.68.18,3.67a4.69,4.69,0,0,0,.78,2.34,3.2,3.2,0,0,0,1.66,1.14,5.55,5.55,0,0,0,2.05.24,2.07,2.07,0,0,1,.43-.06,4.65,4.65,0,0,0,1.94-.74,4.47,4.47,0,0,0,1.31-1.37,4.94,4.94,0,0,0,.61-1.74,13,13,0,0,0,.15-2.06,8.77,8.77,0,0,0,0-1.45v-9.24a5.89,5.89,0,0,0-.07-.86.31.31,0,0,0-.13-.23,3.09,3.09,0,0,0-.25-.23,1,1,0,0,0-.31-.2,1.13,1.13,0,0,0-.33-.13.57.57,0,0,1-.26-.1.27.27,0,0,1-.1-.4.45.45,0,0,1,.21-.16,1.35,1.35,0,0,1,.48-.07c.2,0,.45,0,.74,0l.88,0a5.87,5.87,0,0,0,.84,0l.68-.07A2.5,2.5,0,0,1,357.26,248.88Z"/><path class="a" d="M374.68,268.45c.15.06.19.13.12.18a1.35,1.35,0,0,1-.45.15,6.94,6.94,0,0,1-.77.1l-.88.06a3.75,3.75,0,0,1-.94-.06,3.35,3.35,0,0,1-1.3-.83,9.8,9.8,0,0,1-.86-.81c-.33-.34-.76-.82-1.29-1.43s-1.18-1.4-2-2.36-1.75-2.16-2.89-3.61h-.63v7.09a1.93,1.93,0,0,0,.23,1,1.18,1.18,0,0,0,1,.43.6.6,0,0,1,.3.13.21.21,0,0,1,.05.22c0,.08-.14.14-.32.2a2.83,2.83,0,0,1-.85.05h-3.47a2.15,2.15,0,0,1-.71-.1.62.62,0,0,1-.31-.22.14.14,0,0,1,.05-.21.48.48,0,0,1,.34-.1,1.37,1.37,0,0,0,1.23-1.45V250.6q0-.79-1.23-1c-.3-.14-.47-.27-.49-.4s.09-.24.33-.33l.44-.07.85-.06c.37,0,.87,0,1.5,0h3.61a6.77,6.77,0,0,1,2.74.5,5.16,5.16,0,0,1,1.82,1.29,5,5,0,0,1,1,1.74,7.69,7.69,0,0,1,.38,1.92,6.62,6.62,0,0,1-.21,2.16,3.27,3.27,0,0,1-.94,1.6,6.64,6.64,0,0,1-1.7,1.17,7,7,0,0,1-2,.58l-.2,0H366l2.13,2.61c.63.75,1.19,1.4,1.67,2s.92,1,1.3,1.44.73.74,1,1a8,8,0,0,0,1.67,1.29C374.25,268.22,374.53,268.36,374.68,268.45Zm-11.52-9.54a15.25,15.25,0,0,0,2.68-.26l.34-.07a1.4,1.4,0,0,0,.35-.1,5.45,5.45,0,0,0,.76-.39,4.46,4.46,0,0,0,.69-.56l.07-.07a4.45,4.45,0,0,0,.79-1.21,4.55,4.55,0,0,0,.4-1.53,4.72,4.72,0,0,0-.24-1.65,5.75,5.75,0,0,0-.69-1.48,4,4,0,0,0-1-1.09,4.48,4.48,0,0,0-1.42-.7c-.26-.06-.55-.12-.86-.16a5.42,5.42,0,0,0-.89-.07,3.65,3.65,0,0,0-.84.1.74.74,0,0,0-.48.3v8.94Z"/><path class="a" d="M390.65,248.91a.45.45,0,0,1,.22.13c.05.07,0,.21-.12.43a9.86,9.86,0,0,0-1.32.8,4.28,4.28,0,0,0-.86.84,11.46,11.46,0,0,0-.74,1.12c-.25.43-.58,1-1,1.67-.27.44-.57.94-.93,1.51l-1.25,2V267c0,.3.08.51.1.61a.35.35,0,0,0,.1.21.69.69,0,0,0,.43.3,1.94,1.94,0,0,1,.43.16c.26.16.36.31.29.46a.41.41,0,0,1-.28.15,5.63,5.63,0,0,1-.84.09h0a6.47,6.47,0,0,1-.8-.05l-.67-.09c-.23,0-.44,0-.66,0l-1,.1a1.17,1.17,0,0,1-.71-.14c-.1-.08-.08-.17.05-.26a2.39,2.39,0,0,1,.33-.2,2.08,2.08,0,0,0,.4-.26,1.51,1.51,0,0,0,.34-.43,1.34,1.34,0,0,0,.15-.66v-9l-1-1.7-.67-1.2-.48-.83c-.13-.22-.25-.42-.37-.59a14.75,14.75,0,0,1-.8-1.59,7.86,7.86,0,0,0-.58-1.13,4.17,4.17,0,0,0-.71-.85,5.42,5.42,0,0,0-1.17-.72c-.38-.18-.57-.32-.6-.42s.05-.16.2-.21a2.11,2.11,0,0,1,.63,0,6.38,6.38,0,0,1,.73.1,6.85,6.85,0,0,0,.75.08,5.88,5.88,0,0,0,.73,0l.66-.08.56-.08c.29,0,.45.06.5.2s0,.21-.07.42l-.12.27a1,1,0,0,0,0,.3,2,2,0,0,0,0,.23,1.91,1.91,0,0,0,.13.39c.08.18.2.42.35.73s.36.7.63,1.19.55,1,.93,1.66.84,1.44,1.4,2.36l2-3.5c.47-.83.82-1.46,1-1.88s.35-.67.39-.77a.53.53,0,0,0,.07-.22.7.7,0,0,0-.25-.52,1.61,1.61,0,0,0-.41-.24l-.22-.09a.37.37,0,0,1-.14-.14.21.21,0,0,1-.07-.18.21.21,0,0,1,.13-.18,1.19,1.19,0,0,1,.38,0l.51.07a11.16,11.16,0,0,0,1.16,0h1.83A.89.89,0,0,1,390.65,248.91Z"/><path class="a" d="M433.55,245.88a.68.68,0,0,1,.28.18c.08.08,0,.23-.14.48a8.43,8.43,0,0,0-1.41.69,2.61,2.61,0,0,0-.81.81,3.84,3.84,0,0,0-.44,1.19c-.1.47-.22,1.07-.35,1.79s-.28,1.58-.46,2.55-.36,2-.54,3l-.57,3.08q-.27,1.55-.51,2.79c-.15.84-.29,1.57-.41,2.2s-.23,1.16-.31,1.61l-.23,1.13c-.07.29-.14.54-.2.74-.13.39-.27.62-.4.67a.52.52,0,0,1-.46-.05.59.59,0,0,1-.18-.18,4,4,0,0,1-.35-.69q-.22-.54-.66-1.68T424.26,263c-.47-1.34-1.05-3.05-1.75-5.1L420,250.4l-1.57,4.22c-.47,1.28-.9,2.44-1.3,3.5-.64,1.69-1.18,3.13-1.64,4.31s-.83,2.15-1.15,2.92-.57,1.37-.76,1.81-.34.77-.46,1a2.64,2.64,0,0,1-.28.43.54.54,0,0,1-.17.13.64.64,0,0,1-.47.13q-.22,0-.45-.39a4.29,4.29,0,0,1-.22-.53c-.07-.22-.16-.52-.26-.89s-.21-.84-.33-1.4-.27-1.25-.44-2.07l-.63-2.85c-.24-1.09-.5-2.21-.76-3.35s-.52-2.25-.78-3.33-.47-2-.67-2.77c-.24-.95-.46-1.69-.65-2.23a4.84,4.84,0,0,0-.57-1.22,2.14,2.14,0,0,0-.61-.6l-.71-.38q-.66-.33-.51-.57a.63.63,0,0,1,.41-.32,2.41,2.41,0,0,1,.69,0,8.39,8.39,0,0,1,.86.1q.85,0,1.65,0l.77-.12.65-.08c.31,0,.5.08.59.23a.64.64,0,0,1-.1.5,1.82,1.82,0,0,0-.11.28,2.14,2.14,0,0,0-.09.38c0,.06,0,.15,0,.26a3.91,3.91,0,0,0,.07.45c0,.18.08.43.15.74s.15.7.26,1.19.25,1,.41,1.71.36,1.57.6,2.66.5,2.41.82,4,.7,3.45,1.14,5.67c.46-1.12.9-2.2,1.3-3.23s.79-2,1.14-3c.68-1.78,1.28-3.36,1.78-4.75s.93-2.55,1.26-3.5.55-1.46.74-1.94.34-.85.45-1.09a2.77,2.77,0,0,1,.24-.46.24.24,0,0,1,.18-.1.31.31,0,0,1,.33.05,2,2,0,0,1,.33.28.69.69,0,0,1,.15.2,3.24,3.24,0,0,1,.27.64l.54,1.55c.24.69.57,1.66,1,2.9s.94,2.81,1.55,4.71,1.37,4.21,2.25,7q.62-3.76,1.07-6.39c.3-1.74.54-3.2.73-4.35s.33-2.06.42-2.71.17-1.14.2-1.48a3.81,3.81,0,0,0,0-.66,1.49,1.49,0,0,0-.05-.22A1.18,1.18,0,0,0,429,247a1.61,1.61,0,0,0-.34-.18,1.2,1.2,0,0,1-.43-.23.86.86,0,0,1-.15-.2.42.42,0,0,1-.08-.23q0-.2.39-.3l.46-.05.6,0,.76.07.85.07.91,0,.78-.05h.49A.78.78,0,0,1,433.55,245.88Z"/><path class="a" d="M453.12,268.42c.15.08.19.16.1.23a1.31,1.31,0,0,1-.49.16c-.25.05-.54.08-.88.12l-1,.08a3.52,3.52,0,0,1-1-.1,4.17,4.17,0,0,1-1.49-.92,6,6,0,0,1-.9-.91c-.32-.39-.76-.93-1.31-1.63L444,262.74q-1.25-1.65-3.23-4.16h-.69v8.12a2.11,2.11,0,0,0,.26,1.17,1.36,1.36,0,0,0,1.06.51.53.53,0,0,1,.36.13c.09.09.11.18.07.25a.75.75,0,0,1-.38.22,3.34,3.34,0,0,1-1,.06h-4a2.42,2.42,0,0,1-.81-.11.68.68,0,0,1-.35-.25.2.2,0,0,1,.07-.25.64.64,0,0,1,.4-.11,1.59,1.59,0,0,0,1.42-1.65V248c0-.59-.46-1-1.42-1.15-.38-.16-.57-.31-.58-.47s.11-.27.38-.36a2.55,2.55,0,0,1,.51-.1c.21,0,.53,0,1-.05h5.84a7.74,7.74,0,0,1,3.16.56,6,6,0,0,1,2.06,1.45,5.5,5.5,0,0,1,1.15,2,8.09,8.09,0,0,1,.43,2.19,7,7,0,0,1-.23,2.49,3.83,3.83,0,0,1-1.09,1.83,8.15,8.15,0,0,1-2,1.34,7.53,7.53,0,0,1-2.26.64l-.22,0-.21,0c.92,1.12,1.71,2.11,2.36,3s1.22,1.63,1.71,2.26.94,1.19,1.32,1.64.76.84,1.11,1.17a11.93,11.93,0,0,0,1.07.91c.32.23.6.41.83.56a5,5,0,0,0,.59.31Zm-12.67-10.86a16.21,16.21,0,0,0,3.07-.3,3.57,3.57,0,0,1,.76-.16c.31-.16.6-.32.89-.5A3.91,3.91,0,0,0,446,256l.07-.06a6.16,6.16,0,0,0,.89-1.39,4.78,4.78,0,0,0,.46-1.75,4.91,4.91,0,0,0-.25-1.89,8.58,8.58,0,0,0-.77-1.7,5.2,5.2,0,0,0-1.14-1.27,4.55,4.55,0,0,0-1.64-.78,7.48,7.48,0,0,0-2-.26,4.25,4.25,0,0,0-1,.1.63.63,0,0,0-.52.36v10.2A1.37,1.37,0,0,0,440.45,257.56Z"/><path class="a" d="M467,261.68h-6.67q-.62,2.06-1,3.15c-.24.74-.42,1.29-.54,1.64s-.2.58-.23.68a.86.86,0,0,0-.05.24c0,.24.06.4.17.46a1.33,1.33,0,0,0,.36.17,2.54,2.54,0,0,1,.38.16.52.52,0,0,1,.24.27.25.25,0,0,1,0,.28c-.06.1-.25.15-.56.15h-4c-.24-.05-.33-.12-.28-.22a1.07,1.07,0,0,1,.25-.28,1.68,1.68,0,0,1,.54-.34,1.3,1.3,0,0,0,.51-.35l7.23-21.55a1.7,1.7,0,0,1,.68-.33,1.06,1.06,0,0,1,.44,0,.4.4,0,0,1,.18.14,2.14,2.14,0,0,1,.27.47c.12.26.27.63.44,1.11s.42,1.17.73,2.05.63,1.93,1,3.16.81,2.51,1.22,3.81l1.23,3.83c.39,1.25.74,2.32,1.05,3.22l.69,2.15c.18.52.33.93.45,1.22a4.93,4.93,0,0,0,.28.59,1.17,1.17,0,0,0,.2.26,1.73,1.73,0,0,0,.43.27,1.49,1.49,0,0,1,.39.23c.2.13.28.26.23.39s-.08.08-.19.09l-.83.05h-1.6c-.65,0-1.19,0-1.63,0a8.36,8.36,0,0,1-.89,0,.56.56,0,0,1-.3-.1c-.09-.16,0-.3.16-.43s.24-.13.38-.2a.83.83,0,0,0,.38-.46,1,1,0,0,0,.09-.3,2.59,2.59,0,0,0-.15-.72c-.11-.38-.3-.94-.56-1.7S467.49,263.11,467,261.68Zm-6.27-2,5.71,0q-1.12-4.65-2.67-9.24-.9,2.28-1.65,4.59T460.71,259.7Z"/><path class="a" d="M489.42,252.18a7.32,7.32,0,0,1-.26,2.43,4.23,4.23,0,0,1-1.09,1.83,8.55,8.55,0,0,1-1.95,1.33,7.32,7.32,0,0,1-2.24.65l-1.49.1c-.39,0-.71,0-.95,0a5.47,5.47,0,0,1-.57,0,.61.61,0,0,1-.29-.1q-.3-.12-.3-.33V258a.4.4,0,0,1,.4-.3,2.19,2.19,0,0,1,.56-.07,4.2,4.2,0,0,0,.69-.06,6.83,6.83,0,0,0,1.55-.33,8.24,8.24,0,0,0,1-.38,4.92,4.92,0,0,0,1.19-.88l.06-.06a5.77,5.77,0,0,0,.91-1.42,5,5,0,0,0,.44-1.75,4.41,4.41,0,0,0-.24-1.83,8.54,8.54,0,0,0-.78-1.67A4.5,4.5,0,0,0,484.9,248a4.85,4.85,0,0,0-1.65-.76,7.48,7.48,0,0,0-2-.26,4.51,4.51,0,0,0-1,.09.84.84,0,0,0-.55.33V266.7a1.86,1.86,0,0,0,.28,1.12,1.59,1.59,0,0,0,1,.5.49.49,0,0,1,.37.13.21.21,0,0,1,.06.25.73.73,0,0,1-.38.21,2.9,2.9,0,0,1-1,.07h-4a1.24,1.24,0,0,1-.61-.12c-.15-.08-.23-.16-.25-.25a.23.23,0,0,1,.1-.24.57.57,0,0,1,.39-.12,1.5,1.5,0,0,0,1.06-1.58V248a1,1,0,0,0-.92-1.12c-.36-.16-.54-.31-.56-.47s.06-.27.26-.36a1.35,1.35,0,0,1,.4-.1l.85-.06c.4,0,.94,0,1.64,0h4a7.38,7.38,0,0,1,3.15.6,5.88,5.88,0,0,1,2.06,1.5,6,6,0,0,1,1.18,2A8.41,8.41,0,0,1,489.42,252.18Z"/><path class="a" d="M504.2,260.36a5.57,5.57,0,0,1,.61,2.84,5.19,5.19,0,0,1-1.2,3.07,7.23,7.23,0,0,1-1.5,1.4,6.59,6.59,0,0,1-2.21,1,10.3,10.3,0,0,1-3,.23,15,15,0,0,1-3.94-.86c-.27-.11-.46-.11-.58,0a.87.87,0,0,1-.28.2c-.13,0-.25-.22-.36-.73-.05-.24-.09-.55-.13-.92s-.08-.87-.1-1.49v-1a2.94,2.94,0,0,1,.1-.86c.06-.22.16-.34.29-.36s.32.14.56.5c.05.17.1.4.15.67a5.51,5.51,0,0,0,.22.78,4,4,0,0,0,.67,1.55,2.94,2.94,0,0,0,1.14.79,6.79,6.79,0,0,0,1.68.45,6.35,6.35,0,0,0,2.08-.05,6.92,6.92,0,0,0,2.07-.76,3.57,3.57,0,0,0,1.46-1.42,3,3,0,0,0,.32-1.91,4,4,0,0,0-.94-2,7.61,7.61,0,0,0-2.1-1.71l-2.65-1.55a21.32,21.32,0,0,1-2.43-1.7,6.47,6.47,0,0,1-1.73-2.17,5.47,5.47,0,0,1-.61-2.82,5.32,5.32,0,0,1,1.2-3.08,8,8,0,0,1,1.49-1.39,6,6,0,0,1,2.09-1,8.06,8.06,0,0,1,2.74-.18,10.82,10.82,0,0,1,3.42,1c.26.11.45.12.57,0a1.19,1.19,0,0,1,.28-.18c.14,0,.26.22.37.72,0,.25.09.54.13.9a8.55,8.55,0,0,1,0,1.28c0,.27,0,.53,0,.79a1.56,1.56,0,0,1-.15.62.28.28,0,0,1-.33.16c-.14,0-.33-.23-.58-.58,0-.17-.08-.34-.13-.51s-.09-.33-.13-.51a2.91,2.91,0,0,0-.58-1.09,3.6,3.6,0,0,0-1-.76,5.29,5.29,0,0,0-1.39-.51,4.45,4.45,0,0,0-1.75,0,6,6,0,0,0-1.93.73,3.62,3.62,0,0,0-1.43,1.42,3.08,3.08,0,0,0-.32,1.91,4.1,4.1,0,0,0,.94,2,8.23,8.23,0,0,0,2.1,1.73c.87.52,1.75,1,2.66,1.53a21.18,21.18,0,0,1,2.42,1.7A6.53,6.53,0,0,1,504.2,260.36Z"/><path class="a" d="M534.4,246.26a5.32,5.32,0,0,1,0,1c-.06.43-.13.8-.21,1.13a3,3,0,0,1-.24.75.76.76,0,0,1-.23.31c-.17.13-.29.07-.36-.2a1.58,1.58,0,0,1-.08-.44c0-.19,0-.38,0-.58a3,3,0,0,0-.11-.55.85.85,0,0,0-.48-.42,4,4,0,0,0-1.21-.27,16.39,16.39,0,0,0-2.26,0c-.66.06-1,.34-.95.82l0,.33V266.3c0,.31.05.56.07.75s0,.33.06.44a1.7,1.7,0,0,0,.07.23.19.19,0,0,0,.1.1,1.1,1.1,0,0,0,.44.28l.45.15c.29.11.4.24.33.4a.51.51,0,0,1-.33.14,6.66,6.66,0,0,1-1,.09,3.84,3.84,0,0,1-.91,0l-.77-.1a4.51,4.51,0,0,0-.73.07,4.56,4.56,0,0,1-1.19,0,3,3,0,0,1-.82-.16c-.13-.07-.14-.14,0-.2a3.38,3.38,0,0,1,.62-.36,1.92,1.92,0,0,0,.79-1,.77.77,0,0,0,.07-.25c0-.12,0-.25.07-.38V248.12a1.25,1.25,0,0,0-.43-.89,2.28,2.28,0,0,0-.66-.12,4.66,4.66,0,0,0-.66,0c-.6,0-1,0-1.22,0a2.45,2.45,0,0,0-.66,0,6.61,6.61,0,0,0-.73.19,2.14,2.14,0,0,0-1.25,1.14,5.53,5.53,0,0,1-.37.65c-.11.15-.21.23-.29.24a.19.19,0,0,1-.2,0,.2.2,0,0,1,0-.19c0-.09,0-.29.08-.6s.09-.64.13-1.07a4.42,4.42,0,0,1,.23-1.06,1,1,0,0,1,.33-.5,1.53,1.53,0,0,1,.57-.14,3.47,3.47,0,0,0,1.28.12c.53,0,1.15-.05,1.85-.05h8.4a8.67,8.67,0,0,0,1.07,0,1.15,1.15,0,0,0,.3,0,2.55,2.55,0,0,0,.39,0,2,2,0,0,0,.37,0,.48.48,0,0,1,.29.09C534.32,245.88,534.38,246,534.4,246.26Z"/><path class="a" d="M540.64,247.76v19.1a4,4,0,0,0,.08.7.92.92,0,0,0,.11.26,1.15,1.15,0,0,0,.5.35,3.12,3.12,0,0,1,.49.18c.31.15.42.31.33.46s-.15.12-.33.17a7.17,7.17,0,0,1-1,.1h0A6.27,6.27,0,0,1,540,269a4.42,4.42,0,0,0-.78-.07,3.26,3.26,0,0,0-.7.07,5.48,5.48,0,0,1-1.17,0c-.88-.11-1.13-.25-.76-.43l.37-.16a1.67,1.67,0,0,0,.44-.29,1.87,1.87,0,0,0,.4-.47,1.45,1.45,0,0,0,.18-.76V248.05a1.28,1.28,0,0,0-.36-.9,5.43,5.43,0,0,0-.56-.42,4.25,4.25,0,0,0-.5-.24,1,1,0,0,1-.26-.15c-.11-.11,0-.21.23-.3a1.41,1.41,0,0,1,.31,0h.68a7.76,7.76,0,0,1,1.23,0,4.12,4.12,0,0,0,.66,0,3.5,3.5,0,0,0,.72,0c.26,0,.58-.07.95-.09a2.53,2.53,0,0,1,.53,0,1.9,1.9,0,0,1,.36.09c.27.16.24.32-.06.5l-.53.33A2.24,2.24,0,0,0,540.64,247.76Z"/><path class="a" d="M545.19,249.24c0-.88,0-1.55,0-2a5.39,5.39,0,0,1,.09-1q.06-.31.18-.36a.59.59,0,0,1,.28-.05.74.74,0,0,1,.25.06,3.84,3.84,0,0,1,.59.52q.45.44,1.29,1.41c.56.65,1.32,1.58,2.27,2.78s2.15,2.72,3.58,4.57,3.17,4.12,5.22,6.83V247.89a1.38,1.38,0,0,0-.37-.92,2.34,2.34,0,0,0-.56-.4c-.19-.11-.36-.19-.49-.25a.8.8,0,0,1-.27-.15c-.08-.13,0-.23.24-.29a.89.89,0,0,1,.29,0l.7,0h0a6.55,6.55,0,0,1,1.17,0l.45,0a.29.29,0,0,0,.24,0,2.16,2.16,0,0,1,.68-.06,2.69,2.69,0,0,1,.46,0,.45.45,0,0,1,.23.1.27.27,0,0,1,.12.25.4.4,0,0,1-.22.28,5.24,5.24,0,0,0-.52.29,1.36,1.36,0,0,0-.5.86v18.09c0,.7,0,1.28,0,1.73a4.65,4.65,0,0,1,0,1c0,.24-.1.38-.16.41a.38.38,0,0,1-.24,0,.24.24,0,0,1-.13,0,1.1,1.1,0,0,1-.21-.18,4,4,0,0,1-.38-.44c-.16-.2-.36-.49-.63-.86L546.91,251v15.67a4,4,0,0,0,.08.7.61.61,0,0,0,.11.23.93.93,0,0,0,.48.34,2.38,2.38,0,0,1,.51.22.69.69,0,0,1,.3.25c.07.09.08.18,0,.24a.44.44,0,0,1-.33.2,4.81,4.81,0,0,1-1,.1h0l-.66-.08-.36,0-.43,0-1.09.05a1.42,1.42,0,0,1-.81-.15c-.12-.1-.1-.2,0-.31a1.39,1.39,0,0,1,.37-.2,1.72,1.72,0,0,0,.44-.3,2.19,2.19,0,0,0,.4-.49,1.47,1.47,0,0,0,.18-.76Z"/><path class="a" d="M578.22,246.26a4.57,4.57,0,0,1-.05,1,7.63,7.63,0,0,1-.21,1.13,3.57,3.57,0,0,1-.23.75,1,1,0,0,1-.23.31c-.18.13-.3.07-.37-.2a1.58,1.58,0,0,1-.08-.44c0-.19,0-.38,0-.58a3,3,0,0,0-.11-.55.85.85,0,0,0-.48-.42,3.89,3.89,0,0,0-1.21-.27,16.24,16.24,0,0,0-2.25,0c-.67.06-1,.34-1,.82l0,.33V266.3c0,.31,0,.56.07.75a3.13,3.13,0,0,0,.07.44,1,1,0,0,0,.06.23.19.19,0,0,0,.1.1,1.07,1.07,0,0,0,.45.28l.44.15c.29.11.4.24.33.4a.51.51,0,0,1-.33.14,6.36,6.36,0,0,1-1,.09,3.84,3.84,0,0,1-.91,0l-.77-.1a4.62,4.62,0,0,0-.73.07,4.48,4.48,0,0,1-1.18,0,3,3,0,0,1-.83-.16c-.13-.07-.14-.14,0-.2a3.78,3.78,0,0,1,.62-.36,1.93,1.93,0,0,0,.8-1,1.3,1.3,0,0,0,.06-.25c0-.12,0-.25.07-.38V248.12a1.21,1.21,0,0,0-.43-.89,2.28,2.28,0,0,0-.66-.12,4.66,4.66,0,0,0-.66,0c-.59,0-1,0-1.22,0a2.45,2.45,0,0,0-.66,0,7.24,7.24,0,0,0-.73.19,2.22,2.22,0,0,0-.72.43,2.32,2.32,0,0,0-.53.71,4.48,4.48,0,0,1-.36.65q-.16.23-.3.24a.19.19,0,0,1-.2,0,.23.23,0,0,1,0-.19c0-.09,0-.29.08-.6s.09-.64.14-1.07a4,4,0,0,1,.23-1.06.84.84,0,0,1,.33-.5,1.42,1.42,0,0,1,.56-.14,3.5,3.5,0,0,0,1.28.12c.53,0,1.15-.05,1.85-.05h8.4a8.56,8.56,0,0,0,1.07,0,1.05,1.05,0,0,0,.3,0,2.68,2.68,0,0,0,.4,0,2,2,0,0,0,.36,0,.53.53,0,0,1,.3.09C578.14,245.88,578.2,246,578.22,246.26Z"/><path class="a" d="M605,260.36a5.68,5.68,0,0,1,.61,2.84,5.27,5.27,0,0,1-1.21,3.07,6.76,6.76,0,0,1-1.5,1.4,6.5,6.5,0,0,1-2.21,1,10.3,10.3,0,0,1-3,.23,15,15,0,0,1-3.94-.86c-.26-.11-.46-.11-.58,0a.87.87,0,0,1-.28.2c-.13,0-.25-.22-.36-.73,0-.24-.09-.55-.13-.92s-.08-.87-.1-1.49v-1a2.94,2.94,0,0,1,.1-.86q.09-.33.3-.36c.13,0,.31.14.56.5,0,.17.09.4.14.67a5.51,5.51,0,0,0,.22.78,3.81,3.81,0,0,0,.68,1.55,2.83,2.83,0,0,0,1.13.79,7,7,0,0,0,1.69.45,6.36,6.36,0,0,0,2.08-.05,6.86,6.86,0,0,0,2.06-.76,3.67,3.67,0,0,0,1.47-1.42,3,3,0,0,0,.31-1.91,4,4,0,0,0-.94-2,7.61,7.61,0,0,0-2.1-1.71l-2.65-1.55a21.32,21.32,0,0,1-2.43-1.7,6.73,6.73,0,0,1-1.73-2.17,5.58,5.58,0,0,1-.61-2.82,5.32,5.32,0,0,1,1.2-3.08,8,8,0,0,1,1.49-1.39,6,6,0,0,1,2.09-1,8.06,8.06,0,0,1,2.74-.18,10.68,10.68,0,0,1,3.42,1c.26.11.46.12.58,0a.89.89,0,0,1,.28-.18q.2,0,.36.72c0,.25.09.54.13.9a7.28,7.28,0,0,1,0,1.28c0,.27,0,.53,0,.79a1.56,1.56,0,0,1-.15.62.27.27,0,0,1-.33.16c-.14,0-.33-.23-.57-.58,0-.17-.09-.34-.14-.51s-.08-.33-.13-.51a2.77,2.77,0,0,0-.58-1.09,3.45,3.45,0,0,0-1-.76,5.21,5.21,0,0,0-1.38-.51,4.45,4.45,0,0,0-1.75,0,5.88,5.88,0,0,0-1.93.73,3.64,3.64,0,0,0-1.44,1.42,3,3,0,0,0-.31,1.91,4,4,0,0,0,.94,2A8.17,8.17,0,0,0,598.2,255c.87.52,1.76,1,2.66,1.53a20.33,20.33,0,0,1,2.42,1.7A6.69,6.69,0,0,1,605,260.36Z"/><path class="a" d="M618.71,268.65l-7.32,0a6.65,6.65,0,0,0-1.46,0l-.92.17a2.36,2.36,0,0,1-1.09.06q-.36-.06,0-.33l.41-.28a1.1,1.1,0,0,0,.41-.44,2.36,2.36,0,0,0,.23-.88c0-.38.08-1,.1-1.93V249.8c0-.9,0-1.54-.08-1.93a2.4,2.4,0,0,0-.18-.84.81.81,0,0,0-.31-.36,1,1,0,0,1-.28-.2q-.21-.19,0-.36a2.23,2.23,0,0,1,.86-.07l.87.15a7.23,7.23,0,0,0,1.44,0l7.59,0a7.92,7.92,0,0,0,1-.13l.41-.13a.46.46,0,0,1,.43,0,.22.22,0,0,1,.13.18,2.59,2.59,0,0,1,0,.64q-.08.52-.15,1.32l-.15,1.32a3.43,3.43,0,0,1-.13.66c0,.09-.09.13-.14.13s-.21-.16-.33-.49-.09-.44-.16-.71a4.46,4.46,0,0,0-.26-.78.94.94,0,0,0-.25-.36,2.26,2.26,0,0,0-.94-.3,17.2,17.2,0,0,0-2.3-.18c-1,0-2.45,0-4.3,0v9.24q1.81,0,2.82,0c.67,0,1.18-.06,1.52-.1a2,2,0,0,0,.66-.15.48.48,0,0,0,.21-.18c.11-.13.22-.27.32-.41a1.54,1.54,0,0,1,.31-.35.47.47,0,0,1,.35-.12.3.3,0,0,1,.24.25,1.18,1.18,0,0,1,0,.6c0,.26-.1.57-.16.92s-.17.74-.25,1.11-.14.65-.18.87a2.49,2.49,0,0,1-.15.4.18.18,0,0,1-.15.06.32.32,0,0,1-.18,0c-.08,0-.14-.11-.18-.28a5.78,5.78,0,0,1-.12-.68,1.14,1.14,0,0,0-.28-.67.68.68,0,0,0-.29-.22,3,3,0,0,0-.7-.13c-.33,0-.79-.06-1.4-.07h-2.39v10.13c1.78,0,3.17,0,4.16-.05a17.83,17.83,0,0,0,2.22-.18,2.84,2.84,0,0,0,1-.28,1.45,1.45,0,0,0,.35-.35l.56-.78.49-.67c.14-.18.23-.3.3-.37a.77.77,0,0,1,.17-.13s.08.05.11.15a2.23,2.23,0,0,1,0,.64c-.05.36-.1.79-.17,1.31s-.12.94-.16,1.28a5.86,5.86,0,0,1-.12.67.68.68,0,0,1-.11.21.41.41,0,0,1-.47,0l-.39-.17A4.07,4.07,0,0,0,618.71,268.65Z"/><path class="a" d="M641.58,268.42c.15.08.19.16.1.23a1.31,1.31,0,0,1-.5.16c-.24.05-.53.08-.87.12l-1,.08a3.52,3.52,0,0,1-1-.1,4.17,4.17,0,0,1-1.49-.92,6.48,6.48,0,0,1-.91-.91c-.31-.39-.75-.93-1.3-1.63l-2.08-2.71q-1.25-1.65-3.23-4.16h-.69v8.12a2.11,2.11,0,0,0,.26,1.17,1.34,1.34,0,0,0,1.06.51.53.53,0,0,1,.36.13c.09.09.11.18.06.25s-.17.15-.38.22a3.24,3.24,0,0,1-1,.06h-4a2.42,2.42,0,0,1-.81-.11.68.68,0,0,1-.35-.25.2.2,0,0,1,.07-.25.64.64,0,0,1,.4-.11,1.57,1.57,0,0,0,1.41-1.65V248c0-.59-.45-1-1.41-1.15-.38-.16-.57-.31-.58-.47s.11-.27.38-.36a2.55,2.55,0,0,1,.51-.1c.21,0,.53,0,1-.05h5.84a7.66,7.66,0,0,1,3.15.56,5.91,5.91,0,0,1,2.07,1.45,5.5,5.5,0,0,1,1.15,2,8.5,8.5,0,0,1,.43,2.19,7,7,0,0,1-.23,2.49,3.83,3.83,0,0,1-1.09,1.83,8.15,8.15,0,0,1-2,1.34,7.53,7.53,0,0,1-2.26.64l-.22,0-.21,0c.92,1.12,1.71,2.11,2.36,3s1.22,1.63,1.71,2.26.94,1.19,1.32,1.64.76.84,1.11,1.17a10.68,10.68,0,0,0,1.07.91c.32.23.6.41.83.56a5,5,0,0,0,.59.31Zm-12.67-10.86a16.21,16.21,0,0,0,3.07-.3,3.57,3.57,0,0,1,.76-.16c.3-.16.6-.32.89-.5a3.91,3.91,0,0,0,.79-.63l.07-.06a6.53,6.53,0,0,0,.89-1.39,5,5,0,0,0,.46-1.75,4.91,4.91,0,0,0-.25-1.89,8.06,8.06,0,0,0-.78-1.7,5,5,0,0,0-1.13-1.27,4.55,4.55,0,0,0-1.64-.78,7.48,7.48,0,0,0-2-.26,4.25,4.25,0,0,0-1,.1.63.63,0,0,0-.52.36v10.2A1.37,1.37,0,0,0,628.91,257.56Z"/><path class="a" d="M661.64,245.78c.25,0,.34.11.28.21a.88.88,0,0,1-.24.28,1.66,1.66,0,0,1-.55.35,1.33,1.33,0,0,0-.51.35l-7.29,21.58a1.85,1.85,0,0,1-.68.33.91.91,0,0,1-.44,0,.38.38,0,0,1-.19-.13,2.71,2.71,0,0,1-.26-.48,12.08,12.08,0,0,1-.46-1.12c-.19-.49-.43-1.18-.71-2.06s-.66-1.94-1.06-3.17l-1.22-3.83c-.42-1.32-.83-2.6-1.24-3.84s-.75-2.33-1-3.25-.55-1.62-.72-2.15-.32-.93-.43-1.2a4,4,0,0,0-.26-.56,3.11,3.11,0,0,0-.2-.25,2.25,2.25,0,0,0-.46-.3,3,3,0,0,1-.4-.19c-.22-.14-.29-.27-.2-.4s.09-.07.2-.08l.83-.05h.72l.88,0,.89,0h.77a7.34,7.34,0,0,1,.88,0,.5.5,0,0,1,.28.1c.11.13.05.27-.17.43a3.35,3.35,0,0,1-.38.19.9.9,0,0,0-.38.47,1,1,0,0,0-.08.37,3.5,3.5,0,0,0,.17,1c.12.48.33,1.16.62,2s.73,2.1,1.31,3.64l3,10.23q.9-2.31,1.65-4.62c.51-1.53,1-3.1,1.42-4.68l.4-1.42c.41-1.36.74-2.44,1-3.23s.42-1.41.54-1.84.2-.71.23-.85a1.32,1.32,0,0,0,.05-.35c0-.24-.05-.39-.16-.45a2.61,2.61,0,0,0-.37-.14,3.17,3.17,0,0,1-.38-.17.5.5,0,0,1-.24-.26.27.27,0,0,1,0-.3c.07-.09.25-.13.56-.13h4Z"/><path class="a" d="M668.08,247.76v19.1a4,4,0,0,0,.08.7.7.7,0,0,0,.12.26,1.12,1.12,0,0,0,.49.35,3.68,3.68,0,0,1,.5.18c.31.15.42.31.33.46a.62.62,0,0,1-.33.17,7.61,7.61,0,0,1-1,.1h0a6.42,6.42,0,0,1-.89-.07,4.42,4.42,0,0,0-.78-.07,3.26,3.26,0,0,0-.7.07,5.4,5.4,0,0,1-1.16,0c-.88-.11-1.14-.25-.76-.43l.36-.16a1.9,1.9,0,0,0,.45-.29,2.08,2.08,0,0,0,.39-.47,1.45,1.45,0,0,0,.18-.76V248.05a1.28,1.28,0,0,0-.36-.9,4.53,4.53,0,0,0-.56-.42,3.61,3.61,0,0,0-.5-.24,1,1,0,0,1-.26-.15c-.11-.11,0-.21.23-.3a1.53,1.53,0,0,1,.31,0h.68a7.76,7.76,0,0,1,1.23,0,4.15,4.15,0,0,0,.67,0,3.41,3.41,0,0,0,.71,0c.27,0,.58-.07,1-.09a2.49,2.49,0,0,1,.52,0,1.82,1.82,0,0,1,.37.09c.26.16.24.32-.07.5l-.53.33A2.24,2.24,0,0,0,668.08,247.76Z"/><path class="a" d="M686.72,247.49c.16.88.26,1.59.3,2.12a12,12,0,0,1,.05,1.22,2.16,2.16,0,0,1-.08.59.48.48,0,0,1-.17.23c-.19.18-.36,0-.49-.43-.07-.24-.16-.57-.27-1a3.93,3.93,0,0,0-.92-1.51,4.66,4.66,0,0,0-1.75-1.46,5.14,5.14,0,0,0-1.68-.45,4.32,4.32,0,0,0-2.72.58,6.78,6.78,0,0,0-2.1,2.23,5.46,5.46,0,0,0-.64,1.15c-.19.44-.4,1-.65,1.72A15.09,15.09,0,0,0,675,255a17.84,17.84,0,0,0-.16,2.38,17.58,17.58,0,0,0,.16,2.37,15.21,15.21,0,0,0,.56,2.48c.25.7.46,1.27.65,1.71a5.55,5.55,0,0,0,.64,1.16,5.84,5.84,0,0,0,2.1,2.08,6.68,6.68,0,0,0,2.72.69,5.61,5.61,0,0,0,.82,0,3,3,0,0,0,.86-.2,3.5,3.5,0,0,0,.88-.51,4.73,4.73,0,0,0,.87-.94,5.39,5.39,0,0,0,.92-1.71c.11-.44.2-.79.27-1,.13-.46.3-.6.49-.43a.53.53,0,0,1,.17.23,2.28,2.28,0,0,1,.08.61,12.1,12.1,0,0,1-.05,1.23c0,.51-.14,1.21-.3,2.09a8.6,8.6,0,0,1-2.92,1.3,14.83,14.83,0,0,1-3.08.48,8.51,8.51,0,0,1-3.52-.46,6.83,6.83,0,0,1-2.72-2,6.18,6.18,0,0,1-.81-1.14,13.83,13.83,0,0,1-.84-2,16.7,16.7,0,0,1-.74-3.05,24.35,24.35,0,0,1,0-5.91,16.9,16.9,0,0,1,.74-3.05,13.62,13.62,0,0,1,.84-2,5.27,5.27,0,0,1,.84-1.14,6.54,6.54,0,0,1,2.94-1.93,10.72,10.72,0,0,1,3.6-.45,13.72,13.72,0,0,1,2.9.45A8.83,8.83,0,0,1,686.72,247.49Z"/><path class="a" d="M700.62,268.65l-7.33,0a6.53,6.53,0,0,0-1.45,0l-.93.17a2.32,2.32,0,0,1-1.08.06c-.25,0-.26-.15,0-.33l.41-.28a1.12,1.12,0,0,0,.42-.44,2.57,2.57,0,0,0,.23-.88c0-.38.08-1,.1-1.93V249.8c0-.9-.05-1.54-.09-1.93a2.4,2.4,0,0,0-.18-.84.75.75,0,0,0-.31-.36,1.35,1.35,0,0,1-.28-.2.21.21,0,0,1,0-.36A2.25,2.25,0,0,1,691,246l.87.15a7.25,7.25,0,0,0,1.44,0l7.59,0a7.44,7.44,0,0,0,1-.13l.41-.13a.46.46,0,0,1,.43,0c.07,0,.11.08.13.18a2.15,2.15,0,0,1,0,.64l-.15,1.32q-.08.8-.15,1.32a2.32,2.32,0,0,1-.13.66c0,.09-.09.13-.13.13s-.22-.16-.33-.49-.1-.44-.17-.71a3.76,3.76,0,0,0-.26-.78.84.84,0,0,0-.25-.36,2.21,2.21,0,0,0-.94-.3,17,17,0,0,0-2.29-.18c-1,0-2.46,0-4.31,0v9.24q1.82,0,2.82,0c.67,0,1.18-.06,1.52-.1a2,2,0,0,0,.66-.15.58.58,0,0,0,.22-.18c.11-.13.21-.27.31-.41a1.54,1.54,0,0,1,.31-.35.48.48,0,0,1,.35-.12.32.32,0,0,1,.25.25,1.47,1.47,0,0,1,0,.6c-.05.26-.1.57-.17.92s-.17.74-.25,1.11-.13.65-.18.87a1.37,1.37,0,0,1-.15.4.17.17,0,0,1-.14.06.37.37,0,0,1-.19,0c-.07,0-.13-.11-.18-.28a6.06,6.06,0,0,1-.11-.68,1.28,1.28,0,0,0-.28-.67.78.78,0,0,0-.3-.22,2.79,2.79,0,0,0-.69-.13c-.33,0-.8-.06-1.41-.07h-2.39v10.13c1.78,0,3.17,0,4.16-.05a18.22,18.22,0,0,0,2.23-.18,3,3,0,0,0,1-.28,1.41,1.41,0,0,0,.34-.35c.18-.24.36-.5.56-.78l.5-.67c.13-.18.23-.3.29-.37a1.1,1.1,0,0,1,.17-.13s.08.05.11.15a1.9,1.9,0,0,1,0,.64c0,.36-.1.79-.16,1.31s-.12.94-.17,1.28a4.65,4.65,0,0,1-.11.67,1,1,0,0,1-.12.21.39.39,0,0,1-.46,0l-.4-.17A3.88,3.88,0,0,0,700.62,268.65Z"/><path class="a" d="M718,260.36a5.68,5.68,0,0,1,.61,2.84,5.19,5.19,0,0,1-1.2,3.07,7,7,0,0,1-1.51,1.4,6.5,6.5,0,0,1-2.21,1,10.26,10.26,0,0,1-3,.23,15,15,0,0,1-4-.86q-.39-.16-.57,0a1,1,0,0,1-.28.2c-.13,0-.26-.22-.37-.73,0-.24-.08-.55-.13-.92s-.08-.87-.1-1.49v-1a3.33,3.33,0,0,1,.1-.86q.11-.33.3-.36c.13,0,.32.14.56.5l.15.67a4.44,4.44,0,0,0,.21.78,4,4,0,0,0,.68,1.55,2.8,2.8,0,0,0,1.14.79,6.79,6.79,0,0,0,1.68.45,6.36,6.36,0,0,0,2.08-.05,6.86,6.86,0,0,0,2.06-.76,3.67,3.67,0,0,0,1.47-1.42,3,3,0,0,0,.31-1.91,4,4,0,0,0-.94-2,7.41,7.41,0,0,0-2.09-1.71l-2.66-1.55a20.33,20.33,0,0,1-2.42-1.7,6.63,6.63,0,0,1-1.74-2.17,5.58,5.58,0,0,1-.61-2.82,5.4,5.4,0,0,1,1.21-3.08,8,8,0,0,1,1.48-1.39,6.06,6.06,0,0,1,2.1-1,8,8,0,0,1,2.74-.18,10.7,10.7,0,0,1,3.41,1c.27.11.46.12.58,0a.89.89,0,0,1,.28-.18q.2,0,.36.72c0,.25.09.54.14.9a8.55,8.55,0,0,1,0,1.28c0,.27,0,.53,0,.79a2,2,0,0,1-.15.62.28.28,0,0,1-.33.16c-.15,0-.34-.23-.58-.58-.05-.17-.09-.34-.13-.51s-.09-.33-.13-.51a3.06,3.06,0,0,0-.58-1.09,3.5,3.5,0,0,0-1-.76,5.08,5.08,0,0,0-1.38-.51,4.45,4.45,0,0,0-1.75,0,6,6,0,0,0-1.93.73,3.64,3.64,0,0,0-1.44,1.42,3.08,3.08,0,0,0-.31,1.91,4,4,0,0,0,.94,2,8.23,8.23,0,0,0,2.1,1.73c.87.52,1.75,1,2.65,1.53a21.32,21.32,0,0,1,2.43,1.7A6.66,6.66,0,0,1,718,260.36Z"/></svg>